<?xml version="1.0" encoding="UTF-8" standalone="no"?>
<svg
   viewBox="0 0 16 16"
   version="1.1"
   id="svg1"
   sodipodi:docname="empty.svg"
   inkscape:version="1.4.2 (ebf0e940d0, 2025-05-08)"
   xml:space="preserve"
   xmlns:inkscape="http://www.inkscape.org/namespaces/inkscape"
   xmlns:sodipodi="http://sodipodi.sourceforge.net/DTD/sodipodi-0.dtd"
   xmlns="http://www.w3.org/2000/svg"
   xmlns:svg="http://www.w3.org/2000/svg"><sodipodi:namedview
     id="namedview1"
     pagecolor="#ffffff"
     bordercolor="#000000"
     borderopacity="0.25"
     inkscape:showpageshadow="2"
     inkscape:pageopacity="0.0"
     inkscape:pagecheckerboard="0"
     inkscape:deskcolor="#d1d1d1"
     showgrid="true"
     inkscape:zoom="16.46875"
     inkscape:cx="0.72865275"
     inkscape:cy="10.110057"
     inkscape:window-width="1366"
     inkscape:window-height="736"
     inkscape:window-x="0"
     inkscape:window-y="0"
     inkscape:window-maximized="1"
     inkscape:current-layer="svg1"><inkscape:grid
       id="grid1"
       units="px"
       originx="0"
       originy="0"
       spacingx="1"
       spacingy="1"
       empcolor="#0099e5"
       empopacity="0.30196078"
       color="#0099e5"
       opacity="0.14902"
       empspacing="5"
       enabled="true"
       visible="true" /></sodipodi:namedview><defs
     id="defs3051"><style
       type="text/css"
       id="current-color-scheme">.ColorScheme-Text { color: #fcfcfc; } </style><style
       type="text/css"
       id="current-color-scheme-5">.ColorScheme-Text { color: #fcfcfc; } </style></defs><path
     id="rect1"
     style="fill:#fcfcfc;fill-opacity:1;stroke:none;stroke-width:0.7615;stroke-linecap:round;stroke-linejoin:round;stroke-dasharray:none;stroke-opacity:1;paint-order:fill markers stroke"
     d="M 6.7769003 -4.5368082 C 6.5212813 -4.2811891 6.363961 -3.927271 6.363961 -3.5355339 L 6.363961 3.5355339 C 6.363961 4.3190081 6.9947004 4.9497475 7.7781746 4.9497475 L 14.849242 4.9497475 C 15.632717 4.9497475 16.263456 4.3190081 16.263456 3.5355339 L 16.263456 -3.5355339 C 16.263456 -4.3190081 15.632717 -4.9497475 14.849242 -4.9497475 L 7.7781746 -4.9497475 C 7.3864375 -4.9497475 7.0325194 -4.7924272 6.7769003 -4.5368082 z M 7.2713227 -4.0423858 C 7.3954944 -4.1665575 7.5685461 -4.2426407 7.7588396 -4.2426407 L 14.868577 -4.2426407 C 15.249165 -4.2426407 15.556349 -3.935456 15.556349 -3.5548689 L 15.556349 3.5548689 C 15.556349 3.935456 15.249165 4.2426407 14.868577 4.2426407 L 7.7588396 4.2426407 C 7.3782525 4.2426407 7.0710678 3.935456 7.0710678 3.5548689 L 7.0710678 -3.5548689 C 7.0710678 -3.7451624 7.1471509 -3.9182141 7.2713227 -4.0423858 z "
     transform="rotate(45)" /></svg>
