<?xml version="1.0" encoding="UTF-8" standalone="no"?>
<svg
   height="16px"
   viewBox="0 0 16 16"
   width="16px"
   version="1.1"
   id="svg264"
   sodipodi:docname="call-start.svg"
   inkscape:version="1.2.2 (b0a8486541, 2022-12-01)"
   xmlns:inkscape="http://www.inkscape.org/namespaces/inkscape"
   xmlns:sodipodi="http://sodipodi.sourceforge.net/DTD/sodipodi-0.dtd"
   xmlns="http://www.w3.org/2000/svg"
   xmlns:svg="http://www.w3.org/2000/svg">
  <defs
     id="defs268" />
  <sodipodi:namedview
     id="namedview266"
     pagecolor="#ffffff"
     bordercolor="#000000"
     borderopacity="0.25"
     inkscape:showpageshadow="2"
     inkscape:pageopacity="0.0"
     inkscape:pagecheckerboard="0"
     inkscape:deskcolor="#d1d1d1"
     showgrid="false"
     inkscape:zoom="34.9375"
     inkscape:cx="7.9856887"
     inkscape:cy="8.0286225"
     inkscape:window-width="1366"
     inkscape:window-height="736"
     inkscape:window-x="0"
     inkscape:window-y="0"
     inkscape:window-maximized="1"
     inkscape:current-layer="svg264" />
  <path
     d="m 10.996094 2 c -0.554688 0 -1 0.445312 -1 1 v 3 c 0 0.554688 0.445312 1 1 1 h 0.710937 c -0.671875 2.265625 -2.445312 4.042969 -4.710937 4.710938 v -0.710938 c 0 -0.554688 -0.449219 -1 -1 -1 h -3 c -0.554688 0 -1 0.445312 -1 1 v 1.5 c 0 1.378906 1.117187 2.5 2.5 2.5 h 0.5 c 5.503906 0 10 -4.496094 10 -10 v -0.5 c 0 -1.378906 -1.121094 -2.5 -2.5 -2.5 z m 0 0"
     fill="#2e3436"
     id="path262"
     style="fill:#e6e6e6" />
</svg>
