<?xml version="1.0" encoding="UTF-8" standalone="no"?>
<svg
   height="16px"
   viewBox="0 0 16 16"
   width="16px"
   version="1.1"
   id="svg514"
   sodipodi:docname="contact-new.svg"
   inkscape:version="1.2.2 (b0a8486541, 2022-12-01)"
   xmlns:inkscape="http://www.inkscape.org/namespaces/inkscape"
   xmlns:sodipodi="http://sodipodi.sourceforge.net/DTD/sodipodi-0.dtd"
   xmlns="http://www.w3.org/2000/svg"
   xmlns:svg="http://www.w3.org/2000/svg">
  <defs
     id="defs518" />
  <sodipodi:namedview
     id="namedview516"
     pagecolor="#ffffff"
     bordercolor="#000000"
     borderopacity="0.25"
     inkscape:showpageshadow="2"
     inkscape:pageopacity="0.0"
     inkscape:pagecheckerboard="0"
     inkscape:deskcolor="#d1d1d1"
     showgrid="false"
     inkscape:zoom="34.9375"
     inkscape:cx="7.9856887"
     inkscape:cy="18.332737"
     inkscape:window-width="1366"
     inkscape:window-height="736"
     inkscape:window-x="0"
     inkscape:window-y="0"
     inkscape:window-maximized="1"
     inkscape:current-layer="svg514" />
  <path
     d="m 8 1 c -1.65625 0 -3 1.34375 -3 3 s 1.34375 3 3 3 s 3 -1.34375 3 -3 s -1.34375 -3 -3 -3 z m -1.5 7 c -2.492188 0 -4.5 2.007812 -4.5 4.5 v 0.5 c 0 1.109375 0.890625 2 2 2 h 6 v -1 h -3 v -4 h 3 v -1.972656 c -0.164062 -0.019532 -0.332031 -0.027344 -0.5 -0.027344 z m 4.5 0 v 3 h -3 v 2 h 3 v 3 h 2 v -3 h 3 v -2 h -3 v -3 z m 0 0"
     fill="#2e3436"
     id="path512"
     style="fill:#e6e6e6" />
</svg>
