<?xml version="1.0" encoding="UTF-8" standalone="no"?>
<svg
   height="16px"
   viewBox="0 0 16 16"
   width="16px"
   version="1.1"
   id="svg264"
   sodipodi:docname="document-open-recent.svg"
   inkscape:version="1.2.2 (b0a8486541, 2022-12-01)"
   xmlns:inkscape="http://www.inkscape.org/namespaces/inkscape"
   xmlns:sodipodi="http://sodipodi.sourceforge.net/DTD/sodipodi-0.dtd"
   xmlns="http://www.w3.org/2000/svg"
   xmlns:svg="http://www.w3.org/2000/svg">
  <defs
     id="defs268" />
  <sodipodi:namedview
     id="namedview266"
     pagecolor="#ffffff"
     bordercolor="#000000"
     borderopacity="0.25"
     inkscape:showpageshadow="2"
     inkscape:pageopacity="0.0"
     inkscape:pagecheckerboard="0"
     inkscape:deskcolor="#d1d1d1"
     showgrid="false"
     inkscape:zoom="34.9375"
     inkscape:cx="7.9856887"
     inkscape:cy="8.0286225"
     inkscape:window-width="1366"
     inkscape:window-height="736"
     inkscape:window-x="0"
     inkscape:window-y="0"
     inkscape:window-maximized="1"
     inkscape:current-layer="svg264" />
  <path
     d="m 8.492188 0.0546875 c -4.128907 0 -7.488282 3.3554685 -7.488282 7.4882815 c 0 4.128906 3.359375 7.484375 7.488282 7.484375 c 4.128906 0 7.488281 -3.355469 7.488281 -7.484375 c 0 -4.132813 -3.359375 -7.4882815 -7.488281 -7.4882815 z m 0 1.9726565 c 3.050781 0 5.511718 2.464844 5.511718 5.515625 c 0 3.046875 -2.460937 5.511719 -5.511718 5.511719 c -3.050782 0 -5.511719 -2.464844 -5.511719 -5.511719 c 0 -3.050781 2.460937 -5.515625 5.511719 -5.515625 z m 3.007812 2.007812 c -0.03125 0 -0.066406 0 -0.101562 0.007813 c -0.097657 0.023437 -0.183594 0.078125 -0.25 0.15625 l -2.65625 2.65625 l -1.65625 -1.65625 c -0.109376 -0.179688 -0.3125 -0.269531 -0.515626 -0.234375 c -0.207031 0.039062 -0.363281 0.199218 -0.402343 0.402344 c -0.039063 0.203124 0.054687 0.410156 0.230469 0.519531 l 2 2 c 0.191406 0.179687 0.496093 0.179687 0.6875 0 l 3 -3 c 0.136718 -0.140625 0.179687 -0.351563 0.109374 -0.535157 c -0.074218 -0.183593 -0.246093 -0.308593 -0.445312 -0.316406 z m 0 0"
     fill="#2e3436"
     id="path262"
     style="fill:#e6e6e6" />
</svg>
