<?xml version="1.0" encoding="UTF-8" standalone="no"?>
<svg
   height="16px"
   viewBox="0 0 16 16"
   width="16px"
   version="1.1"
   id="svg639"
   sodipodi:docname="edit-find-replace.svg"
   inkscape:version="1.2.2 (b0a8486541, 2022-12-01)"
   xmlns:inkscape="http://www.inkscape.org/namespaces/inkscape"
   xmlns:sodipodi="http://sodipodi.sourceforge.net/DTD/sodipodi-0.dtd"
   xmlns="http://www.w3.org/2000/svg"
   xmlns:svg="http://www.w3.org/2000/svg">
  <defs
     id="defs643" />
  <sodipodi:namedview
     id="namedview641"
     pagecolor="#ffffff"
     bordercolor="#000000"
     borderopacity="0.25"
     inkscape:showpageshadow="2"
     inkscape:pageopacity="0.0"
     inkscape:pagecheckerboard="0"
     inkscape:deskcolor="#d1d1d1"
     showgrid="false"
     inkscape:zoom="34.9375"
     inkscape:cx="7.9856887"
     inkscape:cy="8.0286225"
     inkscape:window-width="1366"
     inkscape:window-height="736"
     inkscape:window-x="0"
     inkscape:window-y="0"
     inkscape:window-maximized="1"
     inkscape:current-layer="svg639" />
  <g
     fill="#2e3436"
     id="g637"
     style="fill:#e6e6e6">
    <path
       d="m 12.550781 3 c -0.488281 0.003906 -0.988281 0.195312 -1.429687 0.636719 l -7.625 7.625 c -0.316406 0.316406 -0.496094 0.75 -0.496094 1.199219 v 2.539062 h 2.539062 c 0.449219 0 0.882813 -0.179688 1.199219 -0.496094 l 7.625 -7.625 c 1.515625 -1.511718 0.066407 -3.714844 -1.601562 -3.871094 c -0.070313 -0.007812 -0.140625 -0.007812 -0.210938 -0.007812 z m -1.503906 3.054688 l 0.898437 0.898437 l -5.980468 5.980469 l -0.898438 -0.898438 z m 0 0"
       id="path633"
       style="fill:#e6e6e6" />
    <path
       d="m 6.5 0 c -3.578125 0 -6.5 2.921875 -6.5 6.5 c 0 1.800781 0.742188 3.4375 1.9375 4.617188 l 1.40625 -1.410157 c -0.828125 -0.8125 -1.34375 -1.945312 -1.34375 -3.207031 c 0 -2.496094 2.003906 -4.5 4.5 -4.5 c 1.261719 0 2.394531 0.515625 3.207031 1.34375 l 1.410157 -1.410156 c -1.179688 -1.191406 -2.816407 -1.933594 -4.617188 -1.933594 z m 5.6875 10.757812 l -1.417969 1.421876 l 2.503907 2.507812 c 0.957031 0.9375 2.363281 -0.5 1.40625 -1.4375 z m 0 0"
       id="path635"
       style="fill:#e6e6e6" />
  </g>
</svg>
