<?xml version="1.0" encoding="UTF-8" standalone="no"?>
<svg
   height="16px"
   viewBox="0 0 16 16"
   width="16px"
   version="1.1"
   id="svg135"
   sodipodi:docname="edit-copy.svg"
   inkscape:version="1.2.2 (b0a8486541, 2022-12-01)"
   xmlns:inkscape="http://www.inkscape.org/namespaces/inkscape"
   xmlns:sodipodi="http://sodipodi.sourceforge.net/DTD/sodipodi-0.dtd"
   xmlns="http://www.w3.org/2000/svg"
   xmlns:svg="http://www.w3.org/2000/svg">
  <defs
     id="defs139" />
  <sodipodi:namedview
     id="namedview137"
     pagecolor="#ffffff"
     bordercolor="#000000"
     borderopacity="0.25"
     inkscape:showpageshadow="2"
     inkscape:pageopacity="0.0"
     inkscape:pagecheckerboard="0"
     inkscape:deskcolor="#d1d1d1"
     showgrid="false"
     inkscape:zoom="34.9375"
     inkscape:cx="7.9856887"
     inkscape:cy="8.0286225"
     inkscape:window-width="1366"
     inkscape:window-height="736"
     inkscape:window-x="0"
     inkscape:window-y="0"
     inkscape:window-maximized="1"
     inkscape:current-layer="svg135" />
  <path
     d="m 0 3 c 0 -1.644531 1.355469 -3 3 -3 h 5 c 1.644531 0 3 1.355469 3 3 c 0 0.550781 -0.449219 1 -1 1 s -1 -0.449219 -1 -1 c 0 -0.570312 -0.429688 -1 -1 -1 h -5 c -0.570312 0 -1 0.429688 -1 1 v 5 c 0 0.570312 0.429688 1 1 1 c 0.550781 0 1 0.449219 1 1 s -0.449219 1 -1 1 c -1.644531 0 -3 -1.355469 -3 -3 z m 5 5 c 0 -1.644531 1.355469 -3 3 -3 h 5 c 1.644531 0 3 1.355469 3 3 v 5 c 0 1.644531 -1.355469 3 -3 3 h -5 c -1.644531 0 -3 -1.355469 -3 -3 z m 2 0 v 5 c 0 0.570312 0.429688 1 1 1 h 5 c 0.570312 0 1 -0.429688 1 -1 v -5 c 0 -0.570312 -0.429688 -1 -1 -1 h -5 c -0.570312 0 -1 0.429688 -1 1 z m 0 0"
     fill="#2e3436"
     id="path133"
     style="fill:#e6e6e6" />
</svg>
