<?xml version="1.0" encoding="UTF-8" standalone="no"?>
<svg
   height="16px"
   viewBox="0 0 16 16"
   width="16px"
   version="1.1"
   id="svg8"
   sodipodi:docname="edit-select-all.svg"
   inkscape:version="1.2.2 (b0a8486541, 2022-12-01)"
   xmlns:inkscape="http://www.inkscape.org/namespaces/inkscape"
   xmlns:sodipodi="http://sodipodi.sourceforge.net/DTD/sodipodi-0.dtd"
   xmlns="http://www.w3.org/2000/svg"
   xmlns:svg="http://www.w3.org/2000/svg">
  <defs
     id="defs12" />
  <sodipodi:namedview
     id="namedview10"
     pagecolor="#ffffff"
     bordercolor="#000000"
     borderopacity="0.25"
     inkscape:showpageshadow="2"
     inkscape:pageopacity="0.0"
     inkscape:pagecheckerboard="0"
     inkscape:deskcolor="#d1d1d1"
     showgrid="false"
     inkscape:zoom="34.9375"
     inkscape:cx="7.9856887"
     inkscape:cy="8.0286225"
     inkscape:window-width="1366"
     inkscape:window-height="736"
     inkscape:window-x="0"
     inkscape:window-y="0"
     inkscape:window-maximized="1"
     inkscape:current-layer="svg8" />
  <g
     fill="#2e3436"
     id="g6"
     style="fill:#e6e6e6">
    <path
       d="m 0 0 v 3 h 3 v -3 z m 4 0 v 2 h 3 v -2 z m 4 0 v 2 h 4 v -2 z m 5 0 v 3 h 3 v -3 z m -13 4 v 4 h 2 v -4 z m 14 0 v 3 h 2 v -3 z m 0 4 v 4 h 2 v -4 z m -14 1 v 3 h 2 v -3 z m 0 4 v 3 h 3 v -3 z m 13 0 v 3 h 3 v -3 z m -9 1 v 2 h 4 v -2 z m 5 0 v 2 h 3 v -2 z m 0 0"
       id="path2"
       style="fill:#e6e6e6" />
    <path
       d="m 5 4 c -0.554688 0 -1 0.445312 -1 1 v 1 c 0 0.554688 0.445312 1 1 1 h 1 c 0.554688 0 1 -0.445312 1 -1 v -1 c 0 -0.554688 -0.445312 -1 -1 -1 z m 4 0 c -0.554688 0 -1 0.445312 -1 1 v 2 c 0 0.554688 0.445312 1 1 1 h 2 c 0.554688 0 1 -0.445312 1 -1 v -2 c 0 -0.554688 -0.445312 -1 -1 -1 z m -4 4 c -0.554688 0 -1 0.445312 -1 1 v 2 c 0 0.554688 0.445312 1 1 1 h 2 c 0.554688 0 1 -0.445312 1 -1 v -2 c 0 -0.554688 -0.445312 -1 -1 -1 z m 5 1 c -0.554688 0 -1 0.445312 -1 1 v 1 c 0 0.554688 0.445312 1 1 1 h 1 c 0.554688 0 1 -0.445312 1 -1 v -1 c 0 -0.554688 -0.445312 -1 -1 -1 z m 0 0"
       fill-opacity="0.34902"
       id="path4"
       style="fill:#e6e6e6" />
  </g>
</svg>
