<?xml version="1.0" encoding="UTF-8" standalone="no"?>
<svg
   height="16px"
   viewBox="0 0 16 16"
   width="16px"
   version="1.1"
   id="svg635"
   sodipodi:docname="format-text-italic.svg"
   inkscape:version="1.2.2 (b0a8486541, 2022-12-01)"
   xmlns:inkscape="http://www.inkscape.org/namespaces/inkscape"
   xmlns:sodipodi="http://sodipodi.sourceforge.net/DTD/sodipodi-0.dtd"
   xmlns="http://www.w3.org/2000/svg"
   xmlns:svg="http://www.w3.org/2000/svg">
  <defs
     id="defs639" />
  <sodipodi:namedview
     id="namedview637"
     pagecolor="#ffffff"
     bordercolor="#000000"
     borderopacity="0.25"
     inkscape:showpageshadow="2"
     inkscape:pageopacity="0.0"
     inkscape:pagecheckerboard="0"
     inkscape:deskcolor="#d1d1d1"
     showgrid="false"
     inkscape:zoom="34.9375"
     inkscape:cx="7.9856887"
     inkscape:cy="8.0286225"
     inkscape:window-width="1366"
     inkscape:window-height="736"
     inkscape:window-x="0"
     inkscape:window-y="0"
     inkscape:window-maximized="1"
     inkscape:current-layer="svg635" />
  <path
     d="m 5 3 v 2 h 6 c 0.429688 0 0.609375 0.28125 0.480469 0.730469 l -0.347657 1.269531 h -5.242187 c -1.839844 0 -3.132813 1.34375 -3.503906 2.738281 c -0.1875 0.699219 -0.175781 1.480469 0.238281 2.15625 c 0.410156 0.675781 1.25 1.105469 2.15625 1.105469 h 6.761719 l 1.863281 -6.730469 c 0.4375 -1.570312 -0.726562 -3.269531 -2.40625 -3.269531 z m 0.890625 6 h 4.683594 l -0.554688 2 h -5.238281 c -0.394531 0 -0.40625 -0.070312 -0.449219 -0.144531 c -0.046875 -0.074219 -0.097656 -0.292969 -0.015625 -0.59375 c 0.160156 -0.605469 0.730469 -1.261719 1.574219 -1.261719 z m 0 0"
     fill="#2e3436"
     id="path633"
     style="fill:#e6e6e6" />
</svg>
