<?xml version="1.0" encoding="UTF-8" standalone="no"?>
<svg
   height="16px"
   viewBox="0 0 16 16"
   width="16px"
   version="1.1"
   id="svg385"
   sodipodi:docname="format-text-direction-ltr.svg"
   inkscape:version="1.2.2 (b0a8486541, 2022-12-01)"
   xmlns:inkscape="http://www.inkscape.org/namespaces/inkscape"
   xmlns:sodipodi="http://sodipodi.sourceforge.net/DTD/sodipodi-0.dtd"
   xmlns="http://www.w3.org/2000/svg"
   xmlns:svg="http://www.w3.org/2000/svg">
  <defs
     id="defs389" />
  <sodipodi:namedview
     id="namedview387"
     pagecolor="#ffffff"
     bordercolor="#000000"
     borderopacity="0.25"
     inkscape:showpageshadow="2"
     inkscape:pageopacity="0.0"
     inkscape:pagecheckerboard="0"
     inkscape:deskcolor="#d1d1d1"
     showgrid="false"
     inkscape:zoom="34.9375"
     inkscape:cx="7.9856887"
     inkscape:cy="8.0286225"
     inkscape:window-width="1366"
     inkscape:window-height="736"
     inkscape:window-x="0"
     inkscape:window-y="0"
     inkscape:window-maximized="1"
     inkscape:current-layer="svg385" />
  <path
     d="m 2 1 v 2 h 6 c 0.429688 0 1 0.613281 1 1 v 1 h -5 c -0.917969 0 -1.734375 0.382812 -2.25 0.96875 s -0.757812 1.3125 -0.75 2.03125 s 0.269531 1.453125 0.78125 2.03125 s 1.308594 0.96875 2.21875 0.96875 h 7 v -7 c 0 -1.632812 -1.320312 -3 -3 -3 z m 2 6 h 5 v 2 h -5 c -0.398438 0 -0.566406 -0.109375 -0.71875 -0.28125 s -0.277344 -0.4375 -0.28125 -0.71875 s 0.105469 -0.554688 0.25 -0.71875 s 0.328125 -0.28125 0.75 -0.28125 z m 8 3 v 2 h -11 c -0.550781 0 -1 0.449219 -1 1 s 0.449219 1 1 1 h 11 v 2 h 1 v -0.007812 c 0.265625 0.003906 0.519531 -0.101563 0.707031 -0.285157 l 2 -2 c 0.390625 -0.390625 0.390625 -1.023437 0 -1.414062 l -2 -2 c -0.1875 -0.183594 -0.441406 -0.289063 -0.707031 -0.289063 v -0.003906 z m 0 0"
     fill="#2e3436"
     id="path383"
     style="fill:#e6e6e6" />
</svg>
