<?xml version="1.0" encoding="UTF-8" standalone="no"?>
<svg
   height="16px"
   viewBox="0 0 16 16"
   width="16px"
   version="1.1"
   id="svg260"
   sodipodi:docname="go-first.svg"
   inkscape:version="1.2.2 (b0a8486541, 2022-12-01)"
   xmlns:inkscape="http://www.inkscape.org/namespaces/inkscape"
   xmlns:sodipodi="http://sodipodi.sourceforge.net/DTD/sodipodi-0.dtd"
   xmlns="http://www.w3.org/2000/svg"
   xmlns:svg="http://www.w3.org/2000/svg">
  <defs
     id="defs264" />
  <sodipodi:namedview
     id="namedview262"
     pagecolor="#ffffff"
     bordercolor="#000000"
     borderopacity="0.25"
     inkscape:showpageshadow="2"
     inkscape:pageopacity="0.0"
     inkscape:pagecheckerboard="0"
     inkscape:deskcolor="#d1d1d1"
     showgrid="false"
     inkscape:zoom="34.9375"
     inkscape:cx="7.9856887"
     inkscape:cy="8.0286225"
     inkscape:window-width="1366"
     inkscape:window-height="736"
     inkscape:window-x="0"
     inkscape:window-y="0"
     inkscape:window-maximized="1"
     inkscape:current-layer="svg260" />
  <path
     d="m 4 0 c -0.550781 0 -1 0.449219 -1 1 v 14 c 0 0.550781 0.449219 1 1 1 s 1 -0.449219 1 -1 v -14 c 0 -0.550781 -0.449219 -1 -1 -1 z m 7.84375 1.011719 c -0.207031 0.03125 -0.402344 0.128906 -0.550781 0.28125 l -6 6 c -0.1875 0.1875 -0.292969 0.441406 -0.292969 0.707031 s 0.105469 0.519531 0.292969 0.707031 l 6 6 c 0.390625 0.390625 1.023437 0.390625 1.414062 0 c 0.1875 -0.1875 0.292969 -0.441406 0.292969 -0.707031 s -0.105469 -0.519531 -0.292969 -0.707031 l -5.292969 -5.292969 l 5.292969 -5.292969 c 0.1875 -0.1875 0.292969 -0.441406 0.292969 -0.707031 s -0.105469 -0.519531 -0.292969 -0.707031 c -0.226562 -0.226563 -0.546875 -0.332031 -0.863281 -0.28125 z m 0 0"
     fill="#2e3436"
     id="path258"
     style="fill:#e6e6e6" />
</svg>
