<?xml version="1.0" encoding="UTF-8" standalone="no"?>
<svg
   height="16px"
   viewBox="0 0 16 16"
   width="16px"
   version="1.1"
   id="svg260"
   sodipodi:docname="help-about.svg"
   inkscape:version="1.2.2 (b0a8486541, 2022-12-01)"
   xmlns:inkscape="http://www.inkscape.org/namespaces/inkscape"
   xmlns:sodipodi="http://sodipodi.sourceforge.net/DTD/sodipodi-0.dtd"
   xmlns="http://www.w3.org/2000/svg"
   xmlns:svg="http://www.w3.org/2000/svg">
  <defs
     id="defs264" />
  <sodipodi:namedview
     id="namedview262"
     pagecolor="#ffffff"
     bordercolor="#000000"
     borderopacity="0.25"
     inkscape:showpageshadow="2"
     inkscape:pageopacity="0.0"
     inkscape:pagecheckerboard="0"
     inkscape:deskcolor="#d1d1d1"
     showgrid="false"
     inkscape:zoom="34.9375"
     inkscape:cx="7.9856887"
     inkscape:cy="8.0286225"
     inkscape:window-width="1366"
     inkscape:window-height="736"
     inkscape:window-x="0"
     inkscape:window-y="0"
     inkscape:window-maximized="1"
     inkscape:current-layer="svg260" />
  <path
     d="m 7.996094 0.0195312 c -4.410156 0 -8.00000025 3.5898438 -8.00000025 7.9999998 c 0 4.410157 3.58984425 8 8.00000025 8 s 8 -3.589843 8 -8 c 0 -4.410156 -3.589844 -7.9999998 -8 -7.9999998 z m 0 1.9999998 c 3.332031 0 6 2.667969 6 6 s -2.667969 6 -6 6 c -3.332032 0 -6 -2.667969 -6 -6 s 2.667968 -6 6 -6 z m 0 1.875 c -0.621094 0 -1.125 0.503907 -1.125 1.125 c 0 0.621094 0.503906 1.125 1.125 1.125 s 1.125 -0.503906 1.125 -1.125 c 0 -0.621093 -0.503906 -1.125 -1.125 -1.125 z m -1.523438 3.125 c -0.265625 0.011719 -0.476562 0.230469 -0.476562 0.5 c 0 0.277344 0.222656 0.5 0.5 0.5 h 0.5 v 3 h -0.5 c -0.277344 0 -0.5 0.222657 -0.5 0.5 c 0 0.277344 0.222656 0.5 0.5 0.5 h 3 c 0.277344 0 0.5 -0.222656 0.5 -0.5 c 0 -0.277343 -0.222656 -0.5 -0.5 -0.5 h -0.5 v -4 h -2.5 c -0.007813 0 -0.015625 0 -0.023438 0 z m 0 0"
     id="path258"
     style="fill:#e6e6e6" />
</svg>
