<?xml version="1.0" encoding="UTF-8" standalone="no"?>
<svg
   height="16px"
   viewBox="0 0 16 16"
   width="16px"
   version="1.1"
   id="svg389"
   sodipodi:docname="insert-image.svg"
   inkscape:version="1.2.2 (b0a8486541, 2022-12-01)"
   xmlns:inkscape="http://www.inkscape.org/namespaces/inkscape"
   xmlns:sodipodi="http://sodipodi.sourceforge.net/DTD/sodipodi-0.dtd"
   xmlns="http://www.w3.org/2000/svg"
   xmlns:svg="http://www.w3.org/2000/svg">
  <defs
     id="defs393" />
  <sodipodi:namedview
     id="namedview391"
     pagecolor="#ffffff"
     bordercolor="#000000"
     borderopacity="0.25"
     inkscape:showpageshadow="2"
     inkscape:pageopacity="0.0"
     inkscape:pagecheckerboard="0"
     inkscape:deskcolor="#d1d1d1"
     showgrid="false"
     inkscape:zoom="34.9375"
     inkscape:cx="7.9856887"
     inkscape:cy="8.0286225"
     inkscape:window-width="1366"
     inkscape:window-height="736"
     inkscape:window-x="0"
     inkscape:window-y="0"
     inkscape:window-maximized="1"
     inkscape:current-layer="svg389" />
  <g
     fill="#2e3436"
     id="g387"
     style="fill:#e6e6e6">
    <path
       d="m 4 0 s -2 0 -2 1.992188 v 6.007812 s 0 2 2 1.992188 h 8 c 2 0.007812 2 -1.992188 2 -1.992188 v -6.007812 c 0 -1.992188 -2 -1.992188 -2 -1.992188 z m 0 1.992188 h 8 v 6 h -8 z m 5.125 1.957031 l -1.5 1.5 l -1.125 -0.75 l -1.5 1.5 v 0.800781 h 6 v -1.175781 z m 0 0"
       id="path383"
       style="fill:#e6e6e6" />
    <path
       d="m 5 12 v 1 h 0.007812 c -0.003906 0.265625 0.101563 0.519531 0.285157 0.707031 l 2 2 c 0.390625 0.390625 1.023437 0.390625 1.414062 0 l 2 -2 c 0.183594 -0.1875 0.289063 -0.441406 0.289063 -0.707031 h 0.003906 v -1 z m 0 0"
       id="path385"
       style="fill:#e6e6e6" />
  </g>
</svg>
