<?xml version="1.0" encoding="UTF-8" standalone="no"?>
<svg
   height="16px"
   viewBox="0 0 16 16"
   width="16px"
   version="1.1"
   id="svg262"
   sodipodi:docname="mail-mark-junk.svg"
   inkscape:version="1.2.2 (b0a8486541, 2022-12-01)"
   xmlns:inkscape="http://www.inkscape.org/namespaces/inkscape"
   xmlns:sodipodi="http://sodipodi.sourceforge.net/DTD/sodipodi-0.dtd"
   xmlns="http://www.w3.org/2000/svg"
   xmlns:svg="http://www.w3.org/2000/svg">
  <defs
     id="defs266" />
  <sodipodi:namedview
     id="namedview264"
     pagecolor="#ffffff"
     bordercolor="#000000"
     borderopacity="0.25"
     inkscape:showpageshadow="2"
     inkscape:pageopacity="0.0"
     inkscape:pagecheckerboard="0"
     inkscape:deskcolor="#d1d1d1"
     showgrid="false"
     inkscape:zoom="34.9375"
     inkscape:cx="7.9856887"
     inkscape:cy="8.0286225"
     inkscape:window-width="1366"
     inkscape:window-height="736"
     inkscape:window-x="0"
     inkscape:window-y="0"
     inkscape:window-maximized="1"
     inkscape:current-layer="svg262" />
  <path
     d="m 5.105469 0 c -0.265625 0 -0.519531 0.105469 -0.707031 0.292969 l -4.101563 4.101562 c -0.1875 0.1875 -0.29296875 0.441407 -0.2890625 0.707031 v 5.796876 c -0.00390625 0.265624 0.1015625 0.519531 0.2929685 0.707031 l 4.097657 4.101562 c 0.1875 0.1875 0.441406 0.292969 0.707031 0.292969 h 5.800781 c 0.265625 0 0.519531 -0.105469 0.707031 -0.292969 l 4.101563 -4.101562 c 0.1875 -0.1875 0.292968 -0.441407 0.292968 -0.707031 v -5.796876 c 0 -0.265624 -0.105468 -0.519531 -0.296874 -0.707031 l -4.097657 -4.101562 c -0.1875 -0.1875 -0.441406 -0.292969 -0.707031 -0.292969 z m 0.414062 2 h 4.96875 l 3.519531 3.511719 v 4.972656 l -3.515624 3.515625 h -4.972657 l -3.511719 -3.511719 v -4.972656 z m 1.480469 2 v 3 l 0.28125 2 h 1.46875 l 0.25 -2 v -3 z m 1 5.75 c -0.691406 0 -1.25 0.558594 -1.25 1.25 s 0.558594 1.25 1.25 1.25 s 1.25 -0.558594 1.25 -1.25 s -0.558594 -1.25 -1.25 -1.25 z m 0 0"
     fill="#2e3436"
     id="path260"
     style="fill:#e6e6e6" />
</svg>
