<?xml version="1.0" encoding="UTF-8" standalone="no"?>
<svg
   height="16px"
   viewBox="0 0 16 16"
   width="16px"
   version="1.1"
   id="svg391"
   sodipodi:docname="mail-mark-notjunk.svg"
   inkscape:version="1.2.2 (b0a8486541, 2022-12-01)"
   xmlns:inkscape="http://www.inkscape.org/namespaces/inkscape"
   xmlns:sodipodi="http://sodipodi.sourceforge.net/DTD/sodipodi-0.dtd"
   xmlns="http://www.w3.org/2000/svg"
   xmlns:svg="http://www.w3.org/2000/svg">
  <defs
     id="defs395" />
  <sodipodi:namedview
     id="namedview393"
     pagecolor="#ffffff"
     bordercolor="#000000"
     borderopacity="0.25"
     inkscape:showpageshadow="2"
     inkscape:pageopacity="0.0"
     inkscape:pagecheckerboard="0"
     inkscape:deskcolor="#d1d1d1"
     showgrid="false"
     inkscape:zoom="34.9375"
     inkscape:cx="7.9856887"
     inkscape:cy="8.0286225"
     inkscape:window-width="1366"
     inkscape:window-height="736"
     inkscape:window-x="0"
     inkscape:window-y="0"
     inkscape:window-maximized="1"
     inkscape:current-layer="svg391" />
  <g
     fill="#2e3436"
     id="g389"
     style="fill:#e6e6e6">
    <path
       d="m 3 1 c -1.644531 0 -3 1.355469 -3 3 v 5 c 0 1.644531 1.355469 3 3 3 h 3 c 0.550781 0 1 -0.449219 1 -1 s -0.449219 -1 -1 -1 h -3 c -0.550781 0 -1 -0.449219 -1 -1 v -4.800781 l 4.613281 3.078125 c 0.835938 0.558594 1.9375 0.558594 2.773438 0 l 4.613281 -3.078125 v 2.800781 c 0 0.550781 0.449219 1 1 1 s 1 -0.449219 1 -1 v -3 c 0 -1.644531 -1.355469 -3 -3 -3 z m 0.800781 2 h 8.398438 l -3.921875 2.613281 c -0.171875 0.113281 -0.382813 0.113281 -0.554688 0 z m 0 0"
       id="path385"
       style="fill:#e6e6e6" />
    <path
       d="m 14.972656 9.992188 c -0.261718 0 -0.519531 0.105468 -0.707031 0.292968 l -3.292969 3.292969 l -1.292968 -1.292969 c -0.390626 -0.390625 -1.023438 -0.390625 -1.414063 0 s -0.390625 1.023438 0 1.414063 l 2 2 c 0.390625 0.390625 1.023437 0.390625 1.414063 0 l 4 -4 c 0.390624 -0.390625 0.390624 -1.023438 0 -1.414063 c -0.1875 -0.1875 -0.441407 -0.292968 -0.707032 -0.292968 z m 0 0"
       id="path387"
       style="fill:#e6e6e6" />
  </g>
</svg>
