<?xml version="1.0" encoding="UTF-8" standalone="no"?>
<svg
   height="16px"
   viewBox="0 0 16 16"
   width="16px"
   version="1.1"
   id="svg135"
   sodipodi:docname="mail-send.svg"
   inkscape:version="1.2.2 (b0a8486541, 2022-12-01)"
   xmlns:inkscape="http://www.inkscape.org/namespaces/inkscape"
   xmlns:sodipodi="http://sodipodi.sourceforge.net/DTD/sodipodi-0.dtd"
   xmlns="http://www.w3.org/2000/svg"
   xmlns:svg="http://www.w3.org/2000/svg">
  <defs
     id="defs139" />
  <sodipodi:namedview
     id="namedview137"
     pagecolor="#ffffff"
     bordercolor="#000000"
     borderopacity="0.25"
     inkscape:showpageshadow="2"
     inkscape:pageopacity="0.0"
     inkscape:pagecheckerboard="0"
     inkscape:deskcolor="#d1d1d1"
     showgrid="false"
     inkscape:zoom="34.9375"
     inkscape:cx="7.9856887"
     inkscape:cy="8.0286225"
     inkscape:window-width="1366"
     inkscape:window-height="736"
     inkscape:window-x="0"
     inkscape:window-y="0"
     inkscape:window-maximized="1"
     inkscape:current-layer="svg135" />
  <path
     d="m 8 0 c -0.257812 0 -0.511719 0.0976562 -0.707031 0.292969 l -1.25 1.25 l -1.761719 1.730469 c -0.191406 0.199218 -0.28125 0.441406 -0.28125 0.75 c 0 0.976562 1 1 1 1 c 0.257812 0 0.527344 -0.128907 0.71875 -0.3125 l 1.28125 -1.28125 v 3.570312 s 0 1 1 1 s 1 -1 1 -1 v -3.570312 l 1.28125 1.28125 c 0.191406 0.183593 0.410156 0.3125 0.71875 0.3125 c 0 0 1 -0.023438 1 -1 c 0 -0.308594 -0.089844 -0.550782 -0.28125 -0.75 l -1.761719 -1.730469 l -1.25 -1.25 c -0.195312 -0.1953128 -0.449219 -0.292969 -0.707031 -0.292969 z m -5 9 c -1.644531 0 -3 1.355469 -3 3 v 4 h 2 v -3.800781 l 4.613281 3.078125 c 0.835938 0.558594 1.9375 0.558594 2.773438 0 l 4.613281 -3.078125 v 3.800781 h 2 v -4 c 0 -1.644531 -1.355469 -3 -3 -3 z m 0.800781 2 h 8.398438 l -3.921875 2.613281 c -0.171875 0.113281 -0.382813 0.113281 -0.554688 0 z m 0 0"
     fill="#2e3436"
     id="path133"
     style="fill:#e6e6e6" />
</svg>
