<?xml version="1.0" encoding="UTF-8" standalone="no"?>
<svg
   viewBox="0 0 16 16"
   version="1.1"
   id="svg518"
   sodipodi:docname="mail-mark-read.svg"
   inkscape:version="1.2.2 (b0a8486541, 2022-12-01)"
   xmlns:inkscape="http://www.inkscape.org/namespaces/inkscape"
   xmlns:sodipodi="http://sodipodi.sourceforge.net/DTD/sodipodi-0.dtd"
   xmlns="http://www.w3.org/2000/svg"
   xmlns:svg="http://www.w3.org/2000/svg">
  <sodipodi:namedview
     id="namedview520"
     pagecolor="#ffffff"
     bordercolor="#000000"
     borderopacity="0.25"
     inkscape:showpageshadow="2"
     inkscape:pageopacity="0.0"
     inkscape:pagecheckerboard="0"
     inkscape:deskcolor="#d1d1d1"
     showgrid="false"
     inkscape:zoom="34.9375"
     inkscape:cx="7.9856887"
     inkscape:cy="8.0286225"
     inkscape:window-width="1366"
     inkscape:window-height="736"
     inkscape:window-x="0"
     inkscape:window-y="0"
     inkscape:window-maximized="1"
     inkscape:current-layer="svg518" />
  <defs
     id="defs3051">
    <style
       type="text/css"
       id="current-color-scheme">
      .ColorScheme-Text {
        color:#232629;
      }
      </style>
  </defs>
  <path
     style="fill:#e6e6e6;fill-opacity:1;stroke:none"
     d="M 3 2 L 3 4 L 1 6 L 1 14 L 15 14 L 15 6 L 13 4 L 13 2 L 3 2 z M 4 3 L 12 3 L 12 5.8632812 L 11.753906 6.0058594 L 8 7.8828125 L 4.2460938 6.0058594 L 4 5.8691406 L 4 3 z M 5 4 L 5 5 L 11 5 L 11 4 L 5 4 z M 2 7 L 3.9980469 7 L 4 7 L 7.9785156 8.9902344 L 7.9785156 8.9921875 L 8 9 L 8.0214844 8.9921875 L 8.0214844 8.9902344 L 12 7 L 12.001953 7 L 13 7 L 14 7 L 14 13 L 2 13 L 2 7 z "
     class="ColorScheme-Text"
     id="path516" />
</svg>
