<?xml version="1.0" encoding="UTF-8" standalone="no"?>
<svg
   height="16px"
   viewBox="0 0 16 16"
   width="16px"
   version="1.1"
   id="svg260"
   sodipodi:docname="media-eject.svg"
   inkscape:version="1.2.2 (b0a8486541, 2022-12-01)"
   xmlns:inkscape="http://www.inkscape.org/namespaces/inkscape"
   xmlns:sodipodi="http://sodipodi.sourceforge.net/DTD/sodipodi-0.dtd"
   xmlns="http://www.w3.org/2000/svg"
   xmlns:svg="http://www.w3.org/2000/svg">
  <defs
     id="defs264" />
  <sodipodi:namedview
     id="namedview262"
     pagecolor="#ffffff"
     bordercolor="#000000"
     borderopacity="0.25"
     inkscape:showpageshadow="2"
     inkscape:pageopacity="0.0"
     inkscape:pagecheckerboard="0"
     inkscape:deskcolor="#d1d1d1"
     showgrid="false"
     inkscape:zoom="34.9375"
     inkscape:cx="7.9856887"
     inkscape:cy="8.0286225"
     inkscape:window-width="1366"
     inkscape:window-height="736"
     inkscape:window-x="0"
     inkscape:window-y="0"
     inkscape:window-maximized="1"
     inkscape:current-layer="svg260" />
  <path
     d="m 6.585938 1.585938 l -4 4 c -0.371094 0.378906 -0.578126 0.886718 -0.582032 1.148437 l -0.003906 1.265625 c 0 1 1 1 1 1 h 10 s 1 0 1 -1 v -1 h -0.003906 c 0 -0.53125 -0.207032 -1.039062 -0.582032 -1.414062 l -4 -4 c -0.375 -0.375 -0.8125 -0.617188 -1.414062 -0.585938 s -1.09375 0.265625 -1.414062 0.585938 z m -3.585938 9.414062 c -0.554688 0 -1 0.445312 -1 1 v 1 c 0 0.554688 0.445312 1 1 1 h 10 c 0.554688 0 1 -0.445312 1 -1 v -1 c 0 -0.554688 -0.445312 -1 -1 -1 z m 0 0"
     fill="#2e3436"
     id="path258"
     style="fill:#e6e6e6" />
</svg>
