<?xml version="1.0" encoding="UTF-8" standalone="no"?>
<svg
   height="16px"
   viewBox="0 0 16 16"
   width="16px"
   version="1.1"
   id="svg8"
   sodipodi:docname="media-seek-forward.svg"
   inkscape:version="1.2.2 (b0a8486541, 2022-12-01)"
   xmlns:inkscape="http://www.inkscape.org/namespaces/inkscape"
   xmlns:sodipodi="http://sodipodi.sourceforge.net/DTD/sodipodi-0.dtd"
   xmlns="http://www.w3.org/2000/svg"
   xmlns:svg="http://www.w3.org/2000/svg">
  <defs
     id="defs12" />
  <sodipodi:namedview
     id="namedview10"
     pagecolor="#ffffff"
     bordercolor="#000000"
     borderopacity="0.25"
     inkscape:showpageshadow="2"
     inkscape:pageopacity="0.0"
     inkscape:pagecheckerboard="0"
     inkscape:deskcolor="#d1d1d1"
     showgrid="false"
     inkscape:zoom="34.9375"
     inkscape:cx="7.9856887"
     inkscape:cy="8.0286225"
     inkscape:window-width="1366"
     inkscape:window-height="736"
     inkscape:window-x="0"
     inkscape:window-y="0"
     inkscape:window-maximized="1"
     inkscape:current-layer="svg8" />
  <g
     fill="#2e3436"
     id="g6"
     style="fill:#e6e6e6">
    <path
       d="m 2 4 c 0.179688 0 0.359375 0.046875 0.515625 0.140625 l 5 3 c 0.648437 0.386719 0.648437 1.328125 0 1.71875 l -5 3 c -0.15625 0.089844 -0.335937 0.140625 -0.515625 0.136719 c -1 0.003906 -1 -0.996094 -1 -0.996094 v -6 s -0.003906 -1 1 -1 z m 0 0"
       id="path2"
       style="fill:#e6e6e6" />
    <path
       d="m 9 4 c 0.179688 0 0.359375 0.046875 0.515625 0.140625 l 5 3 c 0.648437 0.386719 0.648437 1.328125 0 1.71875 l -5 3 c -0.15625 0.089844 -0.335937 0.140625 -0.515625 0.136719 c -1 0.003906 -1 -0.996094 -1 -0.996094 v -6 s -0.003906 -1 1 -1 z m 0 0"
       id="path4"
       style="fill:#e6e6e6" />
  </g>
</svg>
