<?xml version="1.0" encoding="UTF-8" standalone="no"?>
<svg
   height="16px"
   viewBox="0 0 16 16"
   width="16px"
   version="1.1"
   id="svg272"
   sodipodi:docname="media-skip-forward.svg"
   inkscape:version="1.2.2 (b0a8486541, 2022-12-01)"
   xmlns:inkscape="http://www.inkscape.org/namespaces/inkscape"
   xmlns:sodipodi="http://sodipodi.sourceforge.net/DTD/sodipodi-0.dtd"
   xmlns="http://www.w3.org/2000/svg"
   xmlns:svg="http://www.w3.org/2000/svg">
  <defs
     id="defs276" />
  <sodipodi:namedview
     id="namedview274"
     pagecolor="#ffffff"
     bordercolor="#000000"
     borderopacity="0.25"
     inkscape:showpageshadow="2"
     inkscape:pageopacity="0.0"
     inkscape:pagecheckerboard="0"
     inkscape:deskcolor="#d1d1d1"
     showgrid="false"
     inkscape:zoom="34.9375"
     inkscape:cx="7.9856887"
     inkscape:cy="8.0286225"
     inkscape:window-width="1366"
     inkscape:window-height="736"
     inkscape:window-x="0"
     inkscape:window-y="0"
     inkscape:window-maximized="1"
     inkscape:current-layer="svg272" />
  <g
     fill="#2e3436"
     id="g270"
     style="fill:#e6e6e6">
    <path
       d="m 1 3 v 10 c 0 1 1.085938 1 1.085938 1 h 0.113281 c 0.210937 0 0.417969 -0.046875 0.601562 -0.148438 l 8.398438 -4.800781 c 0.375 -0.207031 0.5625 -0.628906 0.5625 -1.050781 s -0.1875 -0.84375 -0.5625 -1.050781 l -8.398438 -4.800781 c -0.183593 -0.101563 -0.390625 -0.148438 -0.601562 -0.148438 h -0.113281 s -1.085938 0 -1.085938 1 z m 0 0"
       id="path266"
       style="fill:#e6e6e6" />
    <path
       d="m 14.5 2 h -1 c -0.277344 0 -0.5 0.222656 -0.5 0.5 v 11 c 0 0.277344 0.222656 0.5 0.5 0.5 h 1 c 0.277344 0 0.5 -0.222656 0.5 -0.5 v -11 c 0 -0.277344 -0.222656 -0.5 -0.5 -0.5 z m 0 0"
       id="path268"
       style="fill:#e6e6e6" />
  </g>
</svg>
