<?xml version="1.0" encoding="UTF-8" standalone="no"?>
<svg
   height="16px"
   viewBox="0 0 16 16"
   width="16px"
   version="1.1"
   id="svg522"
   sodipodi:docname="view-sort-ascending.svg"
   inkscape:version="1.2.2 (b0a8486541, 2022-12-01)"
   xmlns:inkscape="http://www.inkscape.org/namespaces/inkscape"
   xmlns:sodipodi="http://sodipodi.sourceforge.net/DTD/sodipodi-0.dtd"
   xmlns="http://www.w3.org/2000/svg"
   xmlns:svg="http://www.w3.org/2000/svg">
  <defs
     id="defs526" />
  <sodipodi:namedview
     id="namedview524"
     pagecolor="#ffffff"
     bordercolor="#000000"
     borderopacity="0.25"
     inkscape:showpageshadow="2"
     inkscape:pageopacity="0.0"
     inkscape:pagecheckerboard="0"
     inkscape:deskcolor="#d1d1d1"
     showgrid="false"
     inkscape:zoom="34.9375"
     inkscape:cx="7.9856887"
     inkscape:cy="8.0286225"
     inkscape:window-width="1366"
     inkscape:window-height="736"
     inkscape:window-x="0"
     inkscape:window-y="0"
     inkscape:window-maximized="1"
     inkscape:current-layer="svg522" />
  <g
     fill="#2e3436"
     id="g520"
     style="fill:#e6e6e6">
    <path
       d="m 6.5 6 c -0.277344 0 -0.5 0.222656 -0.5 0.5 v 1 c 0 0.277344 0.222656 0.5 0.5 0.5 h 5 c 0.277344 0 0.5 -0.222656 0.5 -0.5 v -1 c 0 -0.277344 -0.222656 -0.5 -0.5 -0.5 z m 0 3 c -0.277344 0 -0.5 0.222656 -0.5 0.5 v 1 c 0 0.277344 0.222656 0.5 0.5 0.5 h 7 c 0.277344 0 0.5 -0.222656 0.5 -0.5 v -1 c 0 -0.277344 -0.222656 -0.5 -0.5 -0.5 z m 0 3 c -0.277344 0 -0.5 0.222656 -0.5 0.5 v 1 c 0 0.277344 0.222656 0.5 0.5 0.5 h 9 c 0.277344 0 0.5 -0.222656 0.5 -0.5 v -1 c 0 -0.277344 -0.222656 -0.5 -0.5 -0.5 z m 0 0"
       id="path516"
       style="fill:#e6e6e6" />
    <path
       d="m 3 16 c -0.550781 0 -1 -0.449219 -1 -1 v -11 h -2 v -1 h 0.0078125 c -0.00390625 -0.265625 0.1015625 -0.519531 0.2851565 -0.707031 l 2 -2 c 0.390625 -0.3906252 1.023437 -0.3906252 1.414062 0 l 2 2 c 0.183594 0.1875 0.289063 0.441406 0.289063 0.707031 h 0.003906 v 1 h -2 v 11 c 0 0.550781 -0.449219 1 -1 1 z m 0 0"
       id="path518"
       style="fill:#e6e6e6" />
  </g>
</svg>
