<?xml version="1.0" encoding="UTF-8" standalone="no"?>
<svg
   height="16px"
   viewBox="0 0 16 16"
   width="16px"
   version="1.1"
   id="svg1024"
   sodipodi:docname="zoom-fit-best.svg"
   inkscape:version="1.2.2 (b0a8486541, 2022-12-01)"
   xmlns:inkscape="http://www.inkscape.org/namespaces/inkscape"
   xmlns:sodipodi="http://sodipodi.sourceforge.net/DTD/sodipodi-0.dtd"
   xmlns="http://www.w3.org/2000/svg"
   xmlns:svg="http://www.w3.org/2000/svg">
  <defs
     id="defs1028" />
  <sodipodi:namedview
     id="namedview1026"
     pagecolor="#ffffff"
     bordercolor="#000000"
     borderopacity="0.25"
     inkscape:showpageshadow="2"
     inkscape:pageopacity="0.0"
     inkscape:pagecheckerboard="0"
     inkscape:deskcolor="#d1d1d1"
     showgrid="false"
     inkscape:zoom="34.9375"
     inkscape:cx="7.9856887"
     inkscape:cy="8.0286225"
     inkscape:window-width="1366"
     inkscape:window-height="736"
     inkscape:window-x="0"
     inkscape:window-y="0"
     inkscape:window-maximized="1"
     inkscape:current-layer="svg1024" />
  <path
     d="m 4 1 c -1.660156 0 -3 1.339844 -3 3 v 8 c 0 1.660156 1.339844 3 3 3 h 8 c 1.660156 0 3 -1.339844 3 -3 v -8 c 0 -1.660156 -1.339844 -3 -3 -3 z m 0 2 h 3.011719 v 2 h -2 v 2 h -2 l -0.011719 -3 c 0 -0.128906 0.027344 -0.253906 0.074219 -0.375 c 0.003906 -0.003906 0.003906 -0.007812 0.007812 -0.011719 c 0.046875 -0.117187 0.117188 -0.21875 0.203125 -0.308593 c 0.007813 -0.007813 0.011719 -0.011719 0.019532 -0.019532 c 0.089843 -0.085937 0.191406 -0.15625 0.308593 -0.203125 c 0.003907 -0.003906 0.007813 -0.007812 0.015625 -0.007812 c 0.117188 -0.046875 0.242188 -0.074219 0.371094 -0.074219 z m 5 0 h 3.011719 c 0.125 0 0.253906 0.027344 0.371093 0.074219 c 0.003907 0.003906 0.011719 0.003906 0.015626 0.007812 c 0.113281 0.046875 0.21875 0.117188 0.304687 0.203125 c 0.007813 0.007813 0.015625 0.011719 0.019531 0.019532 c 0.089844 0.089843 0.160156 0.191406 0.207032 0.308593 c 0 0.003907 0.003906 0.007813 0.007812 0.015625 c 0.046875 0.117188 0.070312 0.242188 0.074219 0.371094 l -0.011719 3 h -2 v -2 h -2 z m -5.988281 6 h 2 v 2 h 2 v 2 h -3.011719 c -0.128906 0 -0.253906 -0.027344 -0.375 -0.074219 c -0.003906 -0.003906 -0.007812 -0.003906 -0.011719 -0.007812 c -0.117187 -0.046875 -0.21875 -0.117188 -0.308593 -0.203125 c -0.007813 -0.007813 -0.011719 -0.011719 -0.019532 -0.019532 c -0.085937 -0.089843 -0.15625 -0.191406 -0.203125 -0.308593 c -0.003906 -0.003907 -0.007812 -0.007813 -0.007812 -0.015625 c -0.046875 -0.117188 -0.074219 -0.242188 -0.074219 -0.371094 z m 7.988281 0 h 2 l 0.011719 3 c -0.003907 0.128906 -0.027344 0.253906 -0.074219 0.375 c -0.003906 0.003906 -0.003906 0.007812 -0.007812 0.011719 c -0.046876 0.117187 -0.117188 0.21875 -0.203126 0.308593 c -0.007812 0.007813 -0.015624 0.011719 -0.019531 0.019532 c -0.089843 0.085937 -0.195312 0.15625 -0.308593 0.203125 c -0.003907 0.003906 -0.011719 0.007812 -0.015626 0.007812 c -0.117187 0.046875 -0.246093 0.074219 -0.371093 0.074219 h -3.011719 v -2 h 2 z m 0 0"
     fill="#2e3436"
     id="path1022"
     style="fill:#e6e6e6" />
</svg>
